<?xml version="1.0" encoding="utf-8"?>
<!-- Generator: Adobe Illustrator 27.6.1, SVG Export Plug-In . SVG Version: 6.00 Build 0)  -->
<svg version="1.1" id="Layer_1" xmlns="http://www.w3.org/2000/svg" xmlns:xlink="http://www.w3.org/1999/xlink" x="0px" y="0px"
	 viewBox="0 0 1000 1000" style="enable-background:new 0 0 1000 1000;" xml:space="preserve">
<style type="text/css">
	.st0{fill:#DFFE00;}
</style>
<g>
	<path class="st0" d="M500,0L500,0c276.1,0,500,223.9,500,500v0c0,276.1-223.9,500-500,500h0C223.9,1000,0,776.1,0,500v0
		C0,223.9,223.9,0,500,0z"/>
</g>
<g>
	<circle cx="-982.9" cy="716.6" r="145.5"/>
	<circle cx="-744.2" cy="477.8" r="145.5"/>
	<circle cx="-505.4" cy="239.1" r="145.5"/>
</g>
<path d="M602.6,277.1L519,512.5v69.1h-27.4v-69.1l-83.6-235.4H273v411.1h90.5V483.4l-36.1-116.9l25.8-9.2l117.6,330.9h69
	l117.6-330.9l25.8,9.2L647,483.4v204.8h90.5V277.1H602.6z"/>
</svg>
